<?xml version="1.0" encoding="utf-8"?>
<!-- Generator: Adobe Illustrator 14.0.0, SVG Export Plug-In  -->
<!DOCTYPE svg PUBLIC "-//W3C//DTD SVG 1.1//EN" "http://www.w3.org/Graphics/SVG/1.1/DTD/svg11.dtd" [
	<!ENTITY ns_flows "http://ns.adobe.com/Flows/1.0/">
]>
<svg version="1.1"
	 xmlns="http://www.w3.org/2000/svg" xmlns:xlink="http://www.w3.org/1999/xlink" xmlns:a="http://ns.adobe.com/AdobeSVGViewerExtensions/3.0/"
	 x="0px" y="0px" width="428px" height="33px" viewBox="0 0 428 33" enable-background="new 0 0 428 33" xml:space="preserve">
<defs>
</defs>
<path fill="#40190B" d="M16.48,32.606V3.984H0.425V0.735h36.076v3.249h-16.15v28.622H16.48z"/>
<path fill="#40190B" d="M51.026,0.401h14.096c6.625,0,10.871,0.884,12.734,2.651c1.864,1.769,2.795,5.886,2.795,12.352v1.147v1.003
	c0,2.294-0.136,4.707-0.406,7.239c-0.271,2.532-1.179,4.484-2.724,5.854c-1.545,1.37-3.863,2.055-6.952,2.055
	c-0.956,0.096-2.174,0.159-3.656,0.191c-1.481,0.031-2.891,0.048-4.229,0.048h-7.12h-0.86c-1.943,0-3.815-0.097-5.614-0.288
	c-1.8-0.191-3.313-0.543-4.54-1.054c-1.227-0.511-2.23-1.398-3.01-2.66c-0.781-1.262-1.283-2.899-1.505-4.912
	c-0.223-2.013-0.334-4.394-0.334-7.141c0-2.588,0.031-4.448,0.095-5.583c0.063-1.134,0.327-2.756,0.789-4.864
	c0.461-2.108,1.584-3.642,3.369-4.601C45.738,0.88,48.095,0.401,51.026,0.401z M51.863,29.405l8.242,0.19h2.971h1.006
	c2.268,0,4.552-0.11,6.852-0.335c2.3-0.223,3.826-0.98,4.577-2.273c0.751-1.292,1.127-3.231,1.127-5.816v-6.559
	c0-2.011-0.08-3.758-0.239-5.241c-0.16-1.484-0.51-2.617-1.051-3.399c-0.542-0.782-1.25-1.293-2.126-1.531
	c-0.876-0.239-1.768-0.399-2.676-0.479c-0.908-0.08-1.872-0.121-2.891-0.121l-7.502-0.095l-7.406,0.095
	c-3.631,0-6.021,0.473-7.167,1.415c-1.146,0.944-1.72,3.174-1.72,6.691l-0.143,4.796v2.35c0,4.029,0.431,6.756,1.294,8.179
	C45.872,28.694,48.157,29.405,51.863,29.405z"/>
<path fill="#40190B" d="M112.378,32.606L92.501,3.984v28.622h-3.87V0.735h6.296l19.037,27.325l19.109-27.325h6.207v31.871h-3.871
	V3.984l-19.924,28.622H112.378z"/>
<path fill="#40190B" d="M171.963,32.606L152.086,3.984v28.622h-3.871V0.735h6.297l19.036,27.325l19.109-27.325h6.208v31.871h-3.871
	V3.984L175.07,32.606H171.963z"/>
<path fill="#40190B" d="M242.969,0.735l-18.396,18.301v13.57h-3.871v-13.57L202.353,0.735h5.495l14.765,14.956l14.861-14.956
	H242.969z"/>
<path fill="#40190B" d="M285.209,21.903c0,4.078-0.771,6.937-2.314,8.577s-4.412,2.461-8.611,2.461h-3.959h-0.859
	c-2.131,0-4.246-0.112-6.346-0.335c-2.766,0-4.746-0.773-5.938-2.322c-1.193-1.548-1.789-3.837-1.789-6.868v-2.564h3.727
	l-0.049,0.919c0,2.867,0.311,4.769,0.934,5.703c0.621,0.935,2.27,1.53,4.945,1.788l6.211,0.287c2.104,0,3.895-0.088,5.375-0.264
	c1.482-0.174,2.557-0.573,3.227-1.194c0.668-0.621,1.098-1.393,1.289-2.317c0.191-0.924,0.287-1.99,0.287-3.201v-0.669V0.735h3.871
	V21.903z"/>
<path fill="#40190B" d="M304.369,0.401h14.096c6.625,0,10.871,0.884,12.734,2.651c1.863,1.769,2.795,5.886,2.795,12.352v1.147v1.003
	c0,2.294-0.137,4.707-0.406,7.239c-0.271,2.532-1.18,4.484-2.723,5.854c-1.547,1.37-3.863,2.055-6.953,2.055
	c-0.955,0.096-2.174,0.159-3.656,0.191c-1.48,0.031-2.891,0.048-4.229,0.048h-7.119h-0.859c-1.943,0-3.816-0.097-5.615-0.288
	c-1.801-0.191-3.312-0.543-4.539-1.054s-2.23-1.398-3.01-2.66c-0.781-1.262-1.283-2.899-1.506-4.912s-0.334-4.394-0.334-7.141
	c0-2.588,0.031-4.448,0.096-5.583c0.062-1.134,0.326-2.756,0.787-4.864c0.463-2.108,1.584-3.642,3.369-4.601
	C299.08,0.88,301.438,0.401,304.369,0.401z M305.205,29.405l8.242,0.19h2.971h1.006c2.27,0,4.553-0.11,6.854-0.335
	c2.301-0.223,3.826-0.98,4.576-2.273c0.752-1.292,1.127-3.231,1.127-5.816v-6.559c0-2.011-0.08-3.758-0.238-5.241
	c-0.16-1.484-0.51-2.617-1.053-3.399c-0.541-0.782-1.25-1.293-2.125-1.531c-0.877-0.239-1.77-0.399-2.676-0.479
	c-0.908-0.08-1.873-0.121-2.891-0.121l-7.502-0.095l-7.406,0.095c-3.633,0-6.021,0.473-7.168,1.415
	c-1.146,0.944-1.721,3.174-1.721,6.691l-0.143,4.796v2.35c0,4.029,0.43,6.756,1.293,8.179S301.498,29.405,305.205,29.405z"/>
<path fill="#40190B" d="M345.797,32.606h-3.871V0.735h3.871v13.81h29.721V0.735h3.822v31.871h-3.822v-14.86h-29.721V32.606z"/>
<path fill="#40190B" d="M388.273,32.606V0.735h6.428l29.41,28.813V0.735h3.871v31.871h-6.348L392.145,3.65v28.956H388.273z"/>
<rect id="_x3C_Slice_x3E__1_" fill="none" width="428" height="33"/>
</svg>
